<?xml version="1.0" standalone="no"?>
<!DOCTYPE svg PUBLIC "-//W3C//DTD SVG 20010904//EN"
 "http://www.w3.org/TR/2001/REC-SVG-20010904/DTD/svg10.dtd">
<svg version="1.0" xmlns="http://www.w3.org/2000/svg"
 width="305.000000pt" height="305.000000pt" viewBox="0 0 305.000000 305.000000"
 preserveAspectRatio="xMidYMid meet">
<metadata>
Created by potrace 1.16, written by Peter Selinger 2001-2019
</metadata>
<g transform="translate(0.000000,305.000000) scale(0.015250,-0.020333)"
fill="#000000" stroke="none">
<path d="M2900 7505 l0 -3735 3730 0 3730 0 0 1070 0 1070 -120 0 -120 0 0
-950 0 -950 -3490 0 -3490 0 0 3495 0 3495 3490 0 3490 0 0 -950 0 -950 120 0
120 0 0 1070 0 1070 -3730 0 -3730 0 0 -3735z"/>
<path d="M10165 8864 c-11 -2 -55 -6 -97 -9 l-78 -7 0 -1339 0 -1339 130 0
130 0 0 1350 0 1350 -32 -1 c-18 -1 -42 -3 -53 -5z"/>
<path d="M5380 7375 l0 -1205 120 0 120 0 0 843 c-1 752 -3 860 -19 1007 -11
91 -17 167 -16 169 2 2 35 -59 74 -135 43 -87 277 -468 618 -1009 l549 -870
112 -3 112 -3 0 1206 0 1205 -120 0 -120 0 1 -862 c0 -752 2 -884 18 -1025 9
-90 16 -163 14 -163 -2 0 -35 66 -73 146 -55 115 -188 332 -626 1025 l-557
879 -103 0 -104 0 0 -1205z"/>
<path d="M8261 8055 c-319 -60 -461 -208 -513 -537 -18 -116 -18 -722 0 -838
49 -309 178 -452 463 -515 112 -25 380 -31 507 -11 438 67 562 288 562 1006 0
431 -46 627 -175 749 -64 61 -164 110 -275 137 -101 24 -460 30 -569 9z m432
-216 c160 -28 252 -110 293 -263 26 -92 38 -413 25 -644 -12 -229 -21 -279
-61 -367 -47 -105 -137 -170 -267 -195 -97 -19 -353 -8 -426 18 -115 42 -180
110 -220 232 -36 107 -47 222 -47 490 0 447 36 581 180 668 72 43 142 63 254
71 103 8 184 5 269 -10z"/>
<path d="M11490 8064 c-14 -3 -81 -14 -150 -25 -115 -19 -235 -51 -252 -67 -4
-4 6 -54 21 -112 33 -122 18 -115 169 -71 251 74 533 82 700 19 76 -29 151
-103 182 -183 21 -53 24 -81 28 -234 l4 -174 -23 7 c-269 77 -446 106 -650
106 -331 0 -490 -96 -554 -335 -26 -95 -32 -360 -11 -465 39 -193 129 -306
287 -361 55 -20 85 -23 219 -23 170 -1 249 12 413 66 104 34 197 79 276 132
29 20 54 36 56 36 2 0 10 -42 20 -92 9 -51 18 -100 21 -108 3 -13 19 -14 111
-7 60 5 110 11 112 13 2 2 -1 83 -8 181 -6 98 -11 367 -11 598 0 231 -5 472
-10 537 -25 305 -149 465 -416 538 -67 19 -111 23 -294 25 -118 2 -226 1 -240
-1z m315 -970 c114 -14 261 -41 346 -64 l39 -11 0 -219 0 -219 -46 -31 c-56
-39 -208 -111 -289 -138 -166 -56 -387 -70 -488 -32 -56 21 -104 64 -131 117
-40 80 -47 364 -12 464 30 84 96 133 201 149 63 10 223 3 380 -16z"/>
<path d="M13871 8055 c-145 -32 -278 -86 -383 -158 -38 -25 -70 -42 -72 -39
-2 4 -6 36 -10 72 -13 119 -3 110 -127 110 l-109 0 0 -935 0 -935 125 0 125 0
2 741 3 742 75 38 c104 53 228 98 335 120 103 21 281 25 352 7 58 -14 135 -86
154 -143 10 -31 14 -201 17 -772 l3 -733 130 0 130 0 -3 763 c-4 756 -4 763
-26 836 -31 102 -53 140 -107 190 -89 82 -197 111 -410 110 -80 0 -168 -7
-204 -14z"/>
</g>
</svg>
